<mxfile host="app.diagrams.net" modified="2022-09-05T08:57:26.037Z" agent="5.0 (Windows NT 10.0; Win64; x64) AppleWebKit/537.36 (KHTML, like Gecko) Chrome/104.0.0.0 Safari/537.36" etag="UJbPel-Vq_KYsRqnMIRP" version="20.2.7" type="github">
  <diagram name="Page-1" id="efa7a0a1-bf9b-a30e-e6df-94a7791c09e9">
    <mxGraphModel dx="716" dy="399" grid="1" gridSize="10" guides="1" tooltips="1" connect="1" arrows="1" fold="1" page="1" pageScale="1" pageWidth="826" pageHeight="1169" background="none" math="0" shadow="0">
      <root>
        <mxCell id="0" />
        <mxCell id="1" parent="0" />
        <mxCell id="25" value="&lt;p style=&quot;margin: 0px; margin-top: 4px; text-align: center; text-decoration: underline;&quot;&gt;&lt;b&gt;ZTWLM_SZENARIO&lt;/b&gt;&lt;/p&gt;&lt;hr&gt;&lt;p style=&quot;margin: 0px; margin-left: 8px;&quot;&gt;X &lt;span style=&quot;white-space: pre;&quot;&gt;	&lt;/span&gt;MANDT&lt;/p&gt;&lt;p style=&quot;margin: 0px; margin-left: 8px;&quot;&gt;X&lt;span style=&quot;white-space: pre;&quot;&gt;	&lt;/span&gt;SZENARIO&lt;/p&gt;&lt;p style=&quot;margin: 0px; margin-left: 8px;&quot;&gt;&lt;span style=&quot;white-space: pre;&quot;&gt;	&lt;/span&gt;BESCHREIBUNG&lt;br&gt;&lt;/p&gt;&lt;p style=&quot;margin: 0px; margin-left: 8px;&quot;&gt;&lt;span style=&quot;white-space: pre;&quot;&gt;	&lt;/span&gt;SESSION_TIME&lt;br&gt;&lt;/p&gt;&lt;p style=&quot;margin: 0px; margin-left: 8px;&quot;&gt;&lt;span style=&quot;white-space: pre;&quot;&gt;	&lt;/span&gt;DEFAULT_PROCESS&lt;br&gt;&lt;/p&gt;&lt;p style=&quot;margin: 0px; margin-left: 8px;&quot;&gt;&lt;span style=&quot;white-space: pre;&quot;&gt;	&lt;/span&gt;DEFAULT_PRIO&lt;br&gt;&lt;/p&gt;&lt;p style=&quot;margin: 0px; margin-left: 8px;&quot;&gt;&lt;br&gt;&lt;/p&gt;" style="verticalAlign=top;align=left;overflow=fill;fontSize=12;fontFamily=Helvetica;html=1;strokeColor=#003366;shadow=1;fillColor=#D4E1F5;fontColor=#003366" parent="1" vertex="1">
          <mxGeometry x="40.00000000000005" y="21.640000000000366" width="160" height="160" as="geometry" />
        </mxCell>
        <mxCell id="107" value="" style="endArrow=none;edgeStyle=orthogonalEdgeStyle;" parent="1" edge="1">
          <mxGeometry x="190" y="950" as="geometry">
            <mxPoint x="290" y="971.1600000000003" as="sourcePoint" />
            <mxPoint x="440" y="971.1600000000003" as="targetPoint" />
          </mxGeometry>
        </mxCell>
        <mxCell id="108" value="parent" style="resizable=0;align=left;verticalAlign=bottom;labelBackgroundColor=#ffffff;fontSize=10;strokeColor=#003366;shadow=1;fillColor=#D4E1F5;fontColor=#003366" parent="107" connectable="0" vertex="1">
          <mxGeometry x="-1" relative="1" as="geometry">
            <mxPoint x="10" y="-10" as="offset" />
          </mxGeometry>
        </mxCell>
        <mxCell id="EM568YbxJtucLrHgKcol-115" value="&lt;p style=&quot;margin: 0px; margin-top: 4px; text-align: center; text-decoration: underline;&quot;&gt;&lt;b&gt;ZTWLM_SZENARIO&lt;/b&gt;&lt;/p&gt;&lt;hr&gt;&lt;p style=&quot;margin: 0px; margin-left: 8px;&quot;&gt;X &lt;span style=&quot;white-space: pre;&quot;&gt;	&lt;/span&gt;MANDT&lt;/p&gt;&lt;p style=&quot;margin: 0px; margin-left: 8px;&quot;&gt;X&lt;span style=&quot;white-space: pre;&quot;&gt;	&lt;/span&gt;SZENARIO&lt;/p&gt;&lt;p style=&quot;margin: 0px; margin-left: 8px;&quot;&gt;X&lt;span style=&quot;white-space: pre;&quot;&gt;	&lt;/span&gt;TYP&lt;/p&gt;&lt;p style=&quot;margin: 0px; margin-left: 8px;&quot;&gt;&lt;span style=&quot;white-space: pre;&quot;&gt;	&lt;/span&gt;PROZESS&lt;br&gt;&lt;/p&gt;&lt;p style=&quot;margin: 0px; margin-left: 8px;&quot;&gt;&lt;br&gt;&lt;/p&gt;" style="verticalAlign=top;align=left;overflow=fill;fontSize=12;fontFamily=Helvetica;html=1;strokeColor=#003366;shadow=1;fillColor=#D4E1F5;fontColor=#003366" vertex="1" parent="1">
          <mxGeometry x="270.00000000000006" y="21.640000000000366" width="160" height="160" as="geometry" />
        </mxCell>
        <mxCell id="EM568YbxJtucLrHgKcol-116" value="" style="endArrow=classic;html=1;rounded=0;exitX=1.006;exitY=0.338;exitDx=0;exitDy=0;exitPerimeter=0;entryX=-0.015;entryY=0.342;entryDx=0;entryDy=0;entryPerimeter=0;" edge="1" parent="1" source="25" target="EM568YbxJtucLrHgKcol-115">
          <mxGeometry width="50" height="50" relative="1" as="geometry">
            <mxPoint x="250" y="70" as="sourcePoint" />
            <mxPoint x="300" y="20" as="targetPoint" />
          </mxGeometry>
        </mxCell>
      </root>
    </mxGraphModel>
  </diagram>
</mxfile>
